<svg id="Capa_1" enable-background="new 0 0 512 512" height="512" viewBox="0 0 512 512" width="512" xmlns="http://www.w3.org/2000/svg"><g><path d="m379.919 328c-35.757 0-66.813 20.506-82.031 50.375-12.604-7.359-27.066-11.375-41.888-11.375-15.014 0-29.349 3.952-41.91 11.332-15.226-29.846-46.269-50.332-82.009-50.332-50.729 0-92 41.271-92 92s41.271 92 92 92 92-41.271 92-92c0-3.976-.254-7.893-.746-11.738 9.277-7.3 20.633-11.262 32.665-11.262 11.88 0 23.398 4.041 32.662 11.278-.49 3.839-.743 7.752-.743 11.722 0 50.729 41.271 92 92 92s92-41.271 92-92-41.271-92-92-92z"/><path d="m89.595 138h332.81l-8.963-30h-314.884z"/><path d="m432.572 168h-353.144l-61.428 22.523v10.477c0 24.553 12.876 58.796 74.22 82.492 41.505 16.033 98.139 24.508 163.78 24.508s122.275-8.475 163.78-24.508c61.344-23.696 74.22-57.939 74.22-82.492v-10.477z"/><path d="m404.478 78-23.305-78h-76.714l-48.459 24.229-48.459-24.229h-76.714l-23.305 78z"/></g></svg>